<svg width="774" height="578" viewBox="0 0 774 578" fill="none" xmlns="http://www.w3.org/2000/svg">
<g opacity="0.5">
<path d="M364.5 47.7023L140.609 369.704M364.5 47.7023H530.706M364.5 47.7023L333.658 205.278M364.5 47.7023L394.771 94.2225L530.706 47.7023M364.5 47.7023L383.724 118.027L530.706 47.7023M364.5 47.7023L371.511 140.611L530.706 47.7023M364.5 47.7023L311.383 208.703L140.609 369.704M364.5 47.7023L294.579 208.703L140.609 369.704M364.5 47.7023L270.824 205.278L140.609 369.704M364.5 47.7023L359.36 166.247L530.706 47.7023M364.5 47.7023L402.653 72.2488L530.706 47.7023M140.609 369.704H306.814M140.609 369.704L327.947 212.129M140.609 369.704L306.814 251.546V369.704M140.609 369.704L294.579 269.92L306.814 369.704M140.609 369.704L278.69 291.345L306.814 369.704M140.609 369.704L265.746 318.359L306.814 369.704M140.609 369.704L257.325 340.205L306.814 369.704M306.814 369.704L530.706 47.7023M306.814 369.704L337.085 212.129M306.814 369.704L359.36 208.703L530.706 47.7023M306.814 369.704L375.923 212.129L530.706 47.7023M306.814 369.704L394.771 219.389L530.706 47.7023M530.706 47.7023L343.368 205.278M333.658 205.278L327.947 212.129M333.658 205.278H343.368M327.947 212.129H337.085M337.085 212.129L343.368 205.278M563.629 1L339.737 323.002M563.629 1H729.834M563.629 1L532.786 158.575M563.629 1L593.9 47.5202L729.834 1M563.629 1L582.852 71.325L729.834 1M563.629 1L570.639 93.909L729.834 1M563.629 1L510.511 162.001L339.737 323.002M563.629 1L493.707 162.001L339.737 323.002M563.629 1L469.952 158.575L339.737 323.002M563.629 1L558.488 119.545L729.834 1M563.629 1L601.781 25.5466L729.834 1M339.737 323.002H505.942M339.737 323.002L527.075 165.426M339.737 323.002L505.942 204.844V323.002M339.737 323.002L493.707 223.218L505.942 323.002M339.737 323.002L477.818 244.642L505.942 323.002M339.737 323.002L464.874 271.657L505.942 323.002M339.737 323.002L456.453 293.503L505.942 323.002M505.942 323.002L729.834 1M505.942 323.002L536.213 165.426M505.942 323.002L558.488 162.001L729.834 1M505.942 323.002L575.052 165.426L729.834 1M505.942 323.002L593.9 172.687L729.834 1M729.834 1L542.496 158.575M532.786 158.575L527.075 165.426M532.786 158.575H542.496M527.075 165.426H536.213M536.213 165.426L542.496 158.575M591.574 277.102L377.247 585.347M591.574 277.102H750.678M591.574 277.102L562.049 427.946M591.574 277.102L620.551 321.635L750.678 277.102M591.574 277.102L609.976 344.423L750.678 277.102M591.574 277.102L598.285 366.042L750.678 277.102M591.574 277.102L540.726 431.225L377.247 585.347M591.574 277.102L524.64 431.225L377.247 585.347M591.574 277.102L501.899 427.946L377.247 585.347M591.574 277.102L586.653 390.583L750.678 277.102M591.574 277.102L628.096 300.6L750.678 277.102M377.247 585.347H536.352M377.247 585.347L556.582 434.504M377.247 585.347L536.352 472.238V585.347M377.247 585.347L524.64 489.826L536.352 585.347M377.247 585.347L509.429 510.336L536.352 585.347M377.247 585.347L497.039 536.196L536.352 585.347M377.247 585.347L488.977 557.109L536.352 585.347M536.352 585.347L750.678 277.102M536.352 585.347L565.33 434.504M536.352 585.347L586.653 431.225L750.678 277.102M536.352 585.347L602.509 434.504L750.678 277.102M536.352 585.347L620.551 441.454L750.678 277.102M750.678 277.102L571.344 427.946M562.049 427.946L556.582 434.504M562.049 427.946H571.344M556.582 434.504H565.33M565.33 434.504L571.344 427.946M215.327 586.755L1 895M215.327 586.755H374.431M215.327 586.755L185.802 737.598M215.327 586.755L244.304 631.288L374.431 586.755M215.327 586.755L233.729 654.075L374.431 586.755M215.327 586.755L222.038 675.695L374.431 586.755M215.327 586.755L164.479 740.877L1 895M215.327 586.755L148.392 740.877L1 895M215.327 586.755L125.652 737.598L1 895M215.327 586.755L210.406 700.235L374.431 586.755M215.327 586.755L251.849 610.253L374.431 586.755M1 895H160.105M1 895L180.334 744.156M1 895L160.105 781.89V895M1 895L148.392 799.479L160.105 895M1 895L133.182 819.988L160.105 895M1 895L120.791 845.849L160.105 895M1 895L112.73 866.761L160.105 895M160.105 895L374.431 586.755M160.105 895L189.082 744.156M160.105 895L210.406 740.877L374.431 586.755M160.105 895L226.262 744.156L374.431 586.755M160.105 895L244.304 751.107L374.431 586.755M374.431 586.755L195.097 737.598M185.802 737.598L180.334 744.156M185.802 737.598H195.097M180.334 744.156H189.082M189.082 744.156L195.097 737.598M778.895 352.39L435.086 846.385M778.895 352.39H938M778.895 352.39L684.356 586.969M778.895 352.39L807.873 396.922L938 352.39M778.895 352.39L797.297 419.71L938 352.39M778.895 352.39L785.607 441.329L938 352.39M778.895 352.39L663.033 590.248L435.086 846.385M778.895 352.39L646.946 590.248L435.086 846.385M778.895 352.39L624.206 586.969L435.086 846.385M778.895 352.39L736.386 524.86L938 352.39M778.895 352.39L815.418 375.888L938 352.39M435.086 846.385H594.191M435.086 846.385L678.888 593.527M435.086 846.385L658.659 631.261L594.191 846.385M435.086 846.385L646.946 648.849L594.191 846.385M435.086 846.385L631.736 669.359L594.191 846.385M435.086 846.385L619.345 695.219L594.191 846.385M435.086 846.385L611.284 716.132L594.191 846.385M594.191 846.385L938 352.39M594.191 846.385L687.636 593.527M594.191 846.385L708.96 590.248L938 352.39M594.191 846.385L724.816 593.527L938 352.39M594.191 846.385L742.858 600.477L938 352.39M938 352.39L693.651 586.969M684.356 586.969L678.888 593.527M684.356 586.969H693.651M678.888 593.527H687.636M687.636 593.527L693.651 586.969" stroke="white"/>
<path d="M364.5 47.7023L140.609 369.704M364.5 47.7023H530.706M364.5 47.7023L333.658 205.278M364.5 47.7023L394.771 94.2225L530.706 47.7023M364.5 47.7023L383.724 118.027L530.706 47.7023M364.5 47.7023L371.511 140.611L530.706 47.7023M364.5 47.7023L311.383 208.703L140.609 369.704M364.5 47.7023L294.579 208.703L140.609 369.704M364.5 47.7023L270.824 205.278L140.609 369.704M364.5 47.7023L359.36 166.247L530.706 47.7023M364.5 47.7023L402.653 72.2488L530.706 47.7023M140.609 369.704H306.814M140.609 369.704L327.947 212.129M140.609 369.704L306.814 251.546V369.704M140.609 369.704L294.579 269.92L306.814 369.704M140.609 369.704L278.69 291.345L306.814 369.704M140.609 369.704L265.746 318.359L306.814 369.704M140.609 369.704L257.325 340.205L306.814 369.704M306.814 369.704L530.706 47.7023M306.814 369.704L337.085 212.129M306.814 369.704L359.36 208.703L530.706 47.7023M306.814 369.704L375.923 212.129L530.706 47.7023M306.814 369.704L394.771 219.389L530.706 47.7023M530.706 47.7023L343.368 205.278M333.658 205.278L327.947 212.129M333.658 205.278H343.368M327.947 212.129H337.085M337.085 212.129L343.368 205.278M563.629 1L339.737 323.002M563.629 1H729.834M563.629 1L532.786 158.575M563.629 1L593.9 47.5202L729.834 1M563.629 1L582.852 71.325L729.834 1M563.629 1L570.639 93.909L729.834 1M563.629 1L510.511 162.001L339.737 323.002M563.629 1L493.707 162.001L339.737 323.002M563.629 1L469.952 158.575L339.737 323.002M563.629 1L558.488 119.545L729.834 1M563.629 1L601.781 25.5466L729.834 1M339.737 323.002H505.942M339.737 323.002L527.075 165.426M339.737 323.002L505.942 204.844V323.002M339.737 323.002L493.707 223.218L505.942 323.002M339.737 323.002L477.818 244.642L505.942 323.002M339.737 323.002L464.874 271.657L505.942 323.002M339.737 323.002L456.453 293.503L505.942 323.002M505.942 323.002L729.834 1M505.942 323.002L536.213 165.426M505.942 323.002L558.488 162.001L729.834 1M505.942 323.002L575.052 165.426L729.834 1M505.942 323.002L593.9 172.687L729.834 1M729.834 1L542.496 158.575M532.786 158.575L527.075 165.426M532.786 158.575H542.496M527.075 165.426H536.213M536.213 165.426L542.496 158.575M591.574 277.102L377.247 585.347M591.574 277.102H750.678M591.574 277.102L562.049 427.946M591.574 277.102L620.551 321.635L750.678 277.102M591.574 277.102L609.976 344.423L750.678 277.102M591.574 277.102L598.285 366.042L750.678 277.102M591.574 277.102L540.726 431.225L377.247 585.347M591.574 277.102L524.64 431.225L377.247 585.347M591.574 277.102L501.899 427.946L377.247 585.347M591.574 277.102L586.653 390.583L750.678 277.102M591.574 277.102L628.096 300.6L750.678 277.102M377.247 585.347H536.352M377.247 585.347L556.582 434.504M377.247 585.347L536.352 472.238V585.347M377.247 585.347L524.64 489.826L536.352 585.347M377.247 585.347L509.429 510.336L536.352 585.347M377.247 585.347L497.039 536.196L536.352 585.347M377.247 585.347L488.977 557.109L536.352 585.347M536.352 585.347L750.678 277.102M536.352 585.347L565.33 434.504M536.352 585.347L586.653 431.225L750.678 277.102M536.352 585.347L602.509 434.504L750.678 277.102M536.352 585.347L620.551 441.454L750.678 277.102M750.678 277.102L571.344 427.946M562.049 427.946L556.582 434.504M562.049 427.946H571.344M556.582 434.504H565.33M565.33 434.504L571.344 427.946M215.327 586.755L1 895M215.327 586.755H374.431M215.327 586.755L185.802 737.598M215.327 586.755L244.304 631.288L374.431 586.755M215.327 586.755L233.729 654.075L374.431 586.755M215.327 586.755L222.038 675.695L374.431 586.755M215.327 586.755L164.479 740.877L1 895M215.327 586.755L148.392 740.877L1 895M215.327 586.755L125.652 737.598L1 895M215.327 586.755L210.406 700.235L374.431 586.755M215.327 586.755L251.849 610.253L374.431 586.755M1 895H160.105M1 895L180.334 744.156M1 895L160.105 781.89V895M1 895L148.392 799.479L160.105 895M1 895L133.182 819.988L160.105 895M1 895L120.791 845.849L160.105 895M1 895L112.73 866.761L160.105 895M160.105 895L374.431 586.755M160.105 895L189.082 744.156M160.105 895L210.406 740.877L374.431 586.755M160.105 895L226.262 744.156L374.431 586.755M160.105 895L244.304 751.107L374.431 586.755M374.431 586.755L195.097 737.598M185.802 737.598L180.334 744.156M185.802 737.598H195.097M180.334 744.156H189.082M189.082 744.156L195.097 737.598M778.895 352.39L435.086 846.385M778.895 352.39H938M778.895 352.39L684.356 586.969M778.895 352.39L807.873 396.922L938 352.39M778.895 352.39L797.297 419.71L938 352.39M778.895 352.39L785.607 441.329L938 352.39M778.895 352.39L663.033 590.248L435.086 846.385M778.895 352.39L646.946 590.248L435.086 846.385M778.895 352.39L624.206 586.969L435.086 846.385M778.895 352.39L736.386 524.86L938 352.39M778.895 352.39L815.418 375.888L938 352.39M435.086 846.385H594.191M435.086 846.385L678.888 593.527M435.086 846.385L658.659 631.261L594.191 846.385M435.086 846.385L646.946 648.849L594.191 846.385M435.086 846.385L631.736 669.359L594.191 846.385M435.086 846.385L619.345 695.219L594.191 846.385M435.086 846.385L611.284 716.132L594.191 846.385M594.191 846.385L938 352.39M594.191 846.385L687.636 593.527M594.191 846.385L708.96 590.248L938 352.39M594.191 846.385L724.816 593.527L938 352.39M594.191 846.385L742.858 600.477L938 352.39M938 352.39L693.651 586.969M684.356 586.969L678.888 593.527M684.356 586.969H693.651M678.888 593.527H687.636M687.636 593.527L693.651 586.969" stroke="url(#paint0_linear)"/>
</g>
<defs>
<linearGradient id="paint0_linear" x1="636" y1="-27" x2="248.81" y2="135.787" gradientUnits="userSpaceOnUse">
<stop stop-color="#1A1E28" stop-opacity="0"/>
<stop offset="1" stop-color="#0B0E15" stop-opacity="0.91"/>
</linearGradient>
</defs>
</svg>
