<svg width="13" height="8" viewBox="0 0 13 8" fill="none" xmlns="http://www.w3.org/2000/svg">
<path opacity="0.4" d="M0.886719 6.27246L6.06836 0.817383C6.1709 0.714844 6.29395 0.65332 6.4375 0.65332C6.58105 0.65332 6.71094 0.714844 6.81348 0.824219L11.9951 6.2793C12.084 6.36816 12.1387 6.47754 12.1387 6.61426C12.1387 6.88086 11.9336 7.08594 11.667 7.08594C11.5439 7.08594 11.4141 7.03809 11.3252 6.94922L6.44434 1.81543L1.5498 6.94922C1.46777 7.03809 1.34473 7.08594 1.21484 7.08594C0.948242 7.08594 0.743164 6.88086 0.743164 6.61426C0.743164 6.47754 0.797852 6.36133 0.886719 6.27246Z" fill="black"/>
</svg>
