<svg width="577" height="687" viewBox="0 0 577 687" fill="none" xmlns="http://www.w3.org/2000/svg">
<g opacity="0.5">
<path d="M364.5 -161.298L140.609 160.704M364.5 -161.298H530.706M364.5 -161.298L333.658 -3.72249M364.5 -161.298L394.771 -114.778L530.706 -161.298M364.5 -161.298L383.724 -90.9727L530.706 -161.298M364.5 -161.298L371.511 -68.3887L530.706 -161.298M364.5 -161.298L311.383 -0.296941L140.609 160.704M364.5 -161.298L294.579 -0.296941L140.609 160.704M364.5 -161.298L270.824 -3.72249L140.609 160.704M364.5 -161.298L359.36 -42.7528L530.706 -161.298M364.5 -161.298L402.653 -136.751L530.706 -161.298M140.609 160.704H306.814M140.609 160.704L327.947 3.12861M140.609 160.704L306.814 42.5464V160.704M140.609 160.704L294.579 60.92L306.814 160.704M140.609 160.704L278.69 82.3446L306.814 160.704M140.609 160.704L265.746 109.359L306.814 160.704M140.609 160.704L257.325 131.205L306.814 160.704M306.814 160.704L530.706 -161.298M306.814 160.704L337.085 3.12861M306.814 160.704L359.36 -0.296941L530.706 -161.298M306.814 160.704L375.923 3.12861L530.706 -161.298M306.814 160.704L394.771 10.389L530.706 -161.298M530.706 -161.298L343.368 -3.72249M333.658 -3.72249L327.947 3.12861M333.658 -3.72249H343.368M327.947 3.12861H337.085M337.085 3.12861L343.368 -3.72249M563.629 -208L339.737 114.002M563.629 -208H729.834M563.629 -208L532.786 -50.4248M563.629 -208L593.9 -161.48L729.834 -208M563.629 -208L582.852 -137.675L729.834 -208M563.629 -208L570.639 -115.091L729.834 -208M563.629 -208L510.511 -46.9992L339.737 114.002M563.629 -208L493.707 -46.9992L339.737 114.002M563.629 -208L469.952 -50.4248L339.737 114.002M563.629 -208L558.488 -89.4551L729.834 -208M563.629 -208L601.781 -183.453L729.834 -208M339.737 114.002H505.942M339.737 114.002L527.075 -43.5737M339.737 114.002L505.942 -4.1559V114.002M339.737 114.002L493.707 14.2177L505.942 114.002M339.737 114.002L477.818 35.6423L505.942 114.002M339.737 114.002L464.874 62.6572L505.942 114.002M339.737 114.002L456.453 84.503L505.942 114.002M505.942 114.002L729.834 -208M505.942 114.002L536.213 -43.5737M505.942 114.002L558.488 -46.9992L729.834 -208M505.942 114.002L575.052 -43.5737L729.834 -208M505.942 114.002L593.9 -36.3132L729.834 -208M729.834 -208L542.496 -50.4248M532.786 -50.4248L527.075 -43.5737M532.786 -50.4248H542.496M527.075 -43.5737H536.213M536.213 -43.5737L542.496 -50.4248M591.574 68.1023L377.247 376.347M591.574 68.1023H750.678M591.574 68.1023L562.049 218.946M591.574 68.1023L620.551 112.635L750.678 68.1023M591.574 68.1023L609.976 135.423L750.678 68.1023M591.574 68.1023L598.285 157.042L750.678 68.1023M591.574 68.1023L540.726 222.225L377.247 376.347M591.574 68.1023L524.64 222.225L377.247 376.347M591.574 68.1023L501.899 218.946L377.247 376.347M591.574 68.1023L586.653 181.583L750.678 68.1023M591.574 68.1023L628.096 91.6002L750.678 68.1023M377.247 376.347H536.352M377.247 376.347L556.582 225.504M377.247 376.347L536.352 263.238V376.347M377.247 376.347L524.64 280.826L536.352 376.347M377.247 376.347L509.429 301.336L536.352 376.347M377.247 376.347L497.039 327.196L536.352 376.347M377.247 376.347L488.977 348.109L536.352 376.347M536.352 376.347L750.678 68.1023M536.352 376.347L565.33 225.504M536.352 376.347L586.653 222.225L750.678 68.1023M536.352 376.347L602.509 225.504L750.678 68.1023M536.352 376.347L620.551 232.454L750.678 68.1023M750.678 68.1023L571.344 218.946M562.049 218.946L556.582 225.504M562.049 218.946H571.344M556.582 225.504H565.33M565.33 225.504L571.344 218.946M215.327 377.755L1 686M215.327 377.755H374.431M215.327 377.755L185.802 528.598M215.327 377.755L244.304 422.288L374.431 377.755M215.327 377.755L233.729 445.075L374.431 377.755M215.327 377.755L222.038 466.695L374.431 377.755M215.327 377.755L164.479 531.877L1 686M215.327 377.755L148.392 531.877L1 686M215.327 377.755L125.652 528.598L1 686M215.327 377.755L210.406 491.235L374.431 377.755M215.327 377.755L251.849 401.253L374.431 377.755M1 686H160.105M1 686L180.334 535.156M1 686L160.105 572.89V686M1 686L148.392 590.479L160.105 686M1 686L133.182 610.988L160.105 686M1 686L120.791 636.849L160.105 686M1 686L112.73 657.761L160.105 686M160.105 686L374.431 377.755M160.105 686L189.082 535.156M160.105 686L210.406 531.877L374.431 377.755M160.105 686L226.262 535.156L374.431 377.755M160.105 686L244.304 542.107L374.431 377.755M374.431 377.755L195.097 528.598M185.802 528.598L180.334 535.156M185.802 528.598H195.097M180.334 535.156H189.082M189.082 535.156L195.097 528.598M778.895 143.39L435.086 637.385M778.895 143.39H938M778.895 143.39L684.356 377.969M778.895 143.39L807.873 187.922L938 143.39M778.895 143.39L797.297 210.71L938 143.39M778.895 143.39L785.607 232.329L938 143.39M778.895 143.39L663.033 381.248L435.086 637.385M778.895 143.39L646.946 381.248L435.086 637.385M778.895 143.39L624.206 377.969L435.086 637.385M778.895 143.39L736.386 315.86L938 143.39M778.895 143.39L815.418 166.888L938 143.39M435.086 637.385H594.191M435.086 637.385L678.888 384.527M435.086 637.385L658.659 422.261L594.191 637.385M435.086 637.385L646.946 439.849L594.191 637.385M435.086 637.385L631.736 460.359L594.191 637.385M435.086 637.385L619.345 486.219L594.191 637.385M435.086 637.385L611.284 507.132L594.191 637.385M594.191 637.385L938 143.39M594.191 637.385L687.636 384.527M594.191 637.385L708.96 381.248L938 143.39M594.191 637.385L724.816 384.527L938 143.39M594.191 637.385L742.858 391.477L938 143.39M938 143.39L693.651 377.969M684.356 377.969L678.888 384.527M684.356 377.969H693.651M678.888 384.527H687.636M687.636 384.527L693.651 377.969" stroke="white"/>
<path d="M364.5 -161.298L140.609 160.704M364.5 -161.298H530.706M364.5 -161.298L333.658 -3.72249M364.5 -161.298L394.771 -114.778L530.706 -161.298M364.5 -161.298L383.724 -90.9727L530.706 -161.298M364.5 -161.298L371.511 -68.3887L530.706 -161.298M364.5 -161.298L311.383 -0.296941L140.609 160.704M364.5 -161.298L294.579 -0.296941L140.609 160.704M364.5 -161.298L270.824 -3.72249L140.609 160.704M364.5 -161.298L359.36 -42.7528L530.706 -161.298M364.5 -161.298L402.653 -136.751L530.706 -161.298M140.609 160.704H306.814M140.609 160.704L327.947 3.12861M140.609 160.704L306.814 42.5464V160.704M140.609 160.704L294.579 60.92L306.814 160.704M140.609 160.704L278.69 82.3446L306.814 160.704M140.609 160.704L265.746 109.359L306.814 160.704M140.609 160.704L257.325 131.205L306.814 160.704M306.814 160.704L530.706 -161.298M306.814 160.704L337.085 3.12861M306.814 160.704L359.36 -0.296941L530.706 -161.298M306.814 160.704L375.923 3.12861L530.706 -161.298M306.814 160.704L394.771 10.389L530.706 -161.298M530.706 -161.298L343.368 -3.72249M333.658 -3.72249L327.947 3.12861M333.658 -3.72249H343.368M327.947 3.12861H337.085M337.085 3.12861L343.368 -3.72249M563.629 -208L339.737 114.002M563.629 -208H729.834M563.629 -208L532.786 -50.4248M563.629 -208L593.9 -161.48L729.834 -208M563.629 -208L582.852 -137.675L729.834 -208M563.629 -208L570.639 -115.091L729.834 -208M563.629 -208L510.511 -46.9992L339.737 114.002M563.629 -208L493.707 -46.9992L339.737 114.002M563.629 -208L469.952 -50.4248L339.737 114.002M563.629 -208L558.488 -89.4551L729.834 -208M563.629 -208L601.781 -183.453L729.834 -208M339.737 114.002H505.942M339.737 114.002L527.075 -43.5737M339.737 114.002L505.942 -4.1559V114.002M339.737 114.002L493.707 14.2177L505.942 114.002M339.737 114.002L477.818 35.6423L505.942 114.002M339.737 114.002L464.874 62.6572L505.942 114.002M339.737 114.002L456.453 84.503L505.942 114.002M505.942 114.002L729.834 -208M505.942 114.002L536.213 -43.5737M505.942 114.002L558.488 -46.9992L729.834 -208M505.942 114.002L575.052 -43.5737L729.834 -208M505.942 114.002L593.9 -36.3132L729.834 -208M729.834 -208L542.496 -50.4248M532.786 -50.4248L527.075 -43.5737M532.786 -50.4248H542.496M527.075 -43.5737H536.213M536.213 -43.5737L542.496 -50.4248M591.574 68.1023L377.247 376.347M591.574 68.1023H750.678M591.574 68.1023L562.049 218.946M591.574 68.1023L620.551 112.635L750.678 68.1023M591.574 68.1023L609.976 135.423L750.678 68.1023M591.574 68.1023L598.285 157.042L750.678 68.1023M591.574 68.1023L540.726 222.225L377.247 376.347M591.574 68.1023L524.64 222.225L377.247 376.347M591.574 68.1023L501.899 218.946L377.247 376.347M591.574 68.1023L586.653 181.583L750.678 68.1023M591.574 68.1023L628.096 91.6002L750.678 68.1023M377.247 376.347H536.352M377.247 376.347L556.582 225.504M377.247 376.347L536.352 263.238V376.347M377.247 376.347L524.64 280.826L536.352 376.347M377.247 376.347L509.429 301.336L536.352 376.347M377.247 376.347L497.039 327.196L536.352 376.347M377.247 376.347L488.977 348.109L536.352 376.347M536.352 376.347L750.678 68.1023M536.352 376.347L565.33 225.504M536.352 376.347L586.653 222.225L750.678 68.1023M536.352 376.347L602.509 225.504L750.678 68.1023M536.352 376.347L620.551 232.454L750.678 68.1023M750.678 68.1023L571.344 218.946M562.049 218.946L556.582 225.504M562.049 218.946H571.344M556.582 225.504H565.33M565.33 225.504L571.344 218.946M215.327 377.755L1 686M215.327 377.755H374.431M215.327 377.755L185.802 528.598M215.327 377.755L244.304 422.288L374.431 377.755M215.327 377.755L233.729 445.075L374.431 377.755M215.327 377.755L222.038 466.695L374.431 377.755M215.327 377.755L164.479 531.877L1 686M215.327 377.755L148.392 531.877L1 686M215.327 377.755L125.652 528.598L1 686M215.327 377.755L210.406 491.235L374.431 377.755M215.327 377.755L251.849 401.253L374.431 377.755M1 686H160.105M1 686L180.334 535.156M1 686L160.105 572.89V686M1 686L148.392 590.479L160.105 686M1 686L133.182 610.988L160.105 686M1 686L120.791 636.849L160.105 686M1 686L112.73 657.761L160.105 686M160.105 686L374.431 377.755M160.105 686L189.082 535.156M160.105 686L210.406 531.877L374.431 377.755M160.105 686L226.262 535.156L374.431 377.755M160.105 686L244.304 542.107L374.431 377.755M374.431 377.755L195.097 528.598M185.802 528.598L180.334 535.156M185.802 528.598H195.097M180.334 535.156H189.082M189.082 535.156L195.097 528.598M778.895 143.39L435.086 637.385M778.895 143.39H938M778.895 143.39L684.356 377.969M778.895 143.39L807.873 187.922L938 143.39M778.895 143.39L797.297 210.71L938 143.39M778.895 143.39L785.607 232.329L938 143.39M778.895 143.39L663.033 381.248L435.086 637.385M778.895 143.39L646.946 381.248L435.086 637.385M778.895 143.39L624.206 377.969L435.086 637.385M778.895 143.39L736.386 315.86L938 143.39M778.895 143.39L815.418 166.888L938 143.39M435.086 637.385H594.191M435.086 637.385L678.888 384.527M435.086 637.385L658.659 422.261L594.191 637.385M435.086 637.385L646.946 439.849L594.191 637.385M435.086 637.385L631.736 460.359L594.191 637.385M435.086 637.385L619.345 486.219L594.191 637.385M435.086 637.385L611.284 507.132L594.191 637.385M594.191 637.385L938 143.39M594.191 637.385L687.636 384.527M594.191 637.385L708.96 381.248L938 143.39M594.191 637.385L724.816 384.527L938 143.39M594.191 637.385L742.858 391.477L938 143.39M938 143.39L693.651 377.969M684.356 377.969L678.888 384.527M684.356 377.969H693.651M678.888 384.527H687.636M687.636 384.527L693.651 377.969" stroke="url(#paint0_linear)"/>
</g>
<defs>
<linearGradient id="paint0_linear" x1="814.368" y1="-175.833" x2="122.841" y2="302.521" gradientUnits="userSpaceOnUse">
<stop stop-color="#1A1E28" stop-opacity="0"/>
<stop offset="1" stop-color="#0B0E15" stop-opacity="0.91"/>
</linearGradient>
</defs>
</svg>
