<?xml version="1.0" encoding="utf-8"?>
<!-- Generator: Adobe Illustrator 23.0.2, SVG Export Plug-In . SVG Version: 6.00 Build 0)  -->
<svg version="1.1" id="Слой_1" xmlns="http://www.w3.org/2000/svg" xmlns:xlink="http://www.w3.org/1999/xlink" x="0px" y="0px"
	 viewBox="0 0 459 896" style="enable-background:new 0 0 459 896;" xml:space="preserve">
<style type="text/css">
	.st0{opacity:0.5;}
	.st1{fill:none;stroke:#FFFFFF;}
	.st2{fill:none;stroke:url(#SVGID_1_);}
</style>
<g class="st0">
	<path class="st1" d="M-115.5,475.2l-223.9,322 M-115.5,475.2H50.7 M-115.5,475.2l-30.8,157.6 M-115.5,475.2l30.3,46.5l135.9-46.5
		 M-115.5,475.2l19.2,70.3l147-70.3 M-115.5,475.2l7,92.9l159.2-92.9 M-115.5,475.2l-53.1,161l-170.8,161 M-115.5,475.2l-69.9,161
		l-154,161 M-115.5,475.2l-93.7,157.6l-130.2,164.4 M-115.5,475.2l-5.1,118.5L50.7,475.2 M-115.5,475.2l38.2,24.5l128.1-24.5
		 M-339.4,797.2h166.2 M-339.4,797.2l187.3-157.6 M-339.4,797.2L-173.2,679v118.2 M-339.4,797.2l154-99.8l12.2,99.8 M-339.4,797.2
		l138.1-78.4l28.1,78.4 M-339.4,797.2l125.1-51.3l41.1,51.3 M-339.4,797.2l116.7-29.5l49.5,29.5 M-173.2,797.2l223.9-322
		 M-173.2,797.2l30.3-157.6 M-173.2,797.2l52.5-161l171.3-161 M-173.2,797.2l69.1-157.6L50.7,475.2 M-173.2,797.2l88-150.3
		L50.7,475.2 M50.7,475.2l-187.3,157.6 M-146.3,632.8l-5.7,6.9 M-146.3,632.8h9.7 M-152.1,639.6h9.1 M-142.9,639.6l6.3-6.9
		 M83.6,428.5l-223.9,322 M83.6,428.5h166.2 M83.6,428.5L52.8,586.1 M83.6,428.5l30.3,46.5l135.9-46.5 M83.6,428.5l19.2,70.3
		l147-70.3 M83.6,428.5l7,92.9l159.2-92.9 M83.6,428.5l-53.1,161l-170.8,161 M83.6,428.5l-69.9,161l-154,161 M83.6,428.5L-10,586.1
		l-130.2,164.4 M83.6,428.5L78.5,547l171.3-118.5 M83.6,428.5l38.2,24.5l128.1-24.5 M-140.3,750.5H25.9 M-140.3,750.5L47.1,592.9
		 M-140.3,750.5L25.9,632.3v118.2 M-140.3,750.5l154-99.8l12.2,99.8 M-140.3,750.5l138.1-78.4l28.1,78.4 M-140.3,750.5l125.1-51.3
		l41.1,51.3 M-140.3,750.5L-23.5,721l49.5,29.5 M25.9,750.5l223.9-322 M25.9,750.5l30.3-157.6 M25.9,750.5l52.5-161l171.3-161
		 M25.9,750.5l69.1-157.6l154.8-164.4 M25.9,750.5l88-150.3l135.9-171.7 M249.8,428.5L62.5,586.1 M52.8,586.1l-5.7,6.9 M52.8,586.1
		h9.7 M47.1,592.9h9.1 M56.2,592.9l6.3-6.9 M111.6,704.6l-214.3,308.2 M111.6,704.6h159.1 M111.6,704.6L82,855.4 M111.6,704.6
		l29,44.5l130.1-44.5 M111.6,704.6l18.4,67.3l140.7-67.3 M111.6,704.6l6.7,88.9l152.4-88.9 M111.6,704.6L60.7,858.7l-163.5,154.1
		 M111.6,704.6L44.6,858.7l-147.4,154.1 M111.6,704.6L21.9,855.4l-124.7,157.4 M111.6,704.6l-4.9,113.5l164-113.5 M111.6,704.6
		l36.5,23.5l122.6-23.5 M-102.8,1012.8H56.4 M-102.8,1012.8L76.6,862 M-102.8,1012.8L56.4,899.7v113.1 M-102.8,1012.8l147.4-95.5
		l11.7,95.5 M-102.8,1012.8l132.2-75l26.9,75 M-102.8,1012.8L17,963.7l39.3,49.2 M-102.8,1012.8L9,984.6l47.4,28.2 M56.4,1012.8
		l214.3-308.2 M56.4,1012.8l29-150.8 M56.4,1012.8l50.3-154.1l164-154.1 M56.4,1012.8L122.5,862l148.2-157.4 M56.4,1012.8
		l84.2-143.9l130.1-164.4 M270.7,704.6L91.3,855.4 M82,855.4l-5.5,6.6 M82,855.4h9.3 M76.6,862h8.7 M85.3,862l6-6.6 M-264.7,1014.2
		L-479,1322.5 M-264.7,1014.2h159.1 M-264.7,1014.2l-29.5,150.8 M-264.7,1014.2l29,44.5l130.1-44.5 M-264.7,1014.2l18.4,67.3
		l140.7-67.3 M-264.7,1014.2l6.7,88.9l152.4-88.9 M-264.7,1014.2l-50.8,154.1L-479,1322.5 M-264.7,1014.2l-66.9,154.1L-479,1322.5
		 M-264.7,1014.2l-89.7,150.8L-479,1322.5 M-264.7,1014.2l-4.9,113.5l164-113.5 M-264.7,1014.2l36.5,23.5l122.6-23.5 M-479,1322.5
		h159.1 M-479,1322.5l179.3-150.8 M-479,1322.5l159.1-113.1v113.1 M-479,1322.5l147.4-95.5l11.7,95.5 M-479,1322.5l132.2-75l26.9,75
		 M-479,1322.5l119.8-49.2l39.3,49.2 M-479,1322.5l111.7-28.2l47.4,28.2 M-319.9,1322.5l214.3-308.2 M-319.9,1322.5l29-150.8
		 M-319.9,1322.5l50.3-154.1l164-154.1 M-319.9,1322.5l66.2-150.8l148.2-157.4 M-319.9,1322.5l84.2-143.9l130.1-164.4
		 M-105.6,1014.2l-179.3,150.8 M-294.2,1165.1l-5.5,6.6 M-294.2,1165.1h9.3 M-299.7,1171.6h8.7 M-290.9,1171.6l6-6.6 M298.9,779.9
		l-343.8,494 M298.9,779.9H458 M298.9,779.9l-94.5,234.6 M298.9,779.9l29,44.5L458,779.9 M298.9,779.9l18.4,67.3L458,779.9
		 M298.9,779.9l6.7,88.9L458,779.9 M298.9,779.9L183,1017.7l-227.9,256.1 M298.9,779.9l-131.9,237.9l-211.9,256.1 M298.9,779.9
		l-154.7,234.6l-189.1,259.4 M298.9,779.9l-42.5,172.5L458,779.9 M298.9,779.9l36.5,23.5L458,779.9 M-44.9,1273.9h159.1
		 M-44.9,1273.9L198.9,1021 M-44.9,1273.9l223.6-215.1l-64.5,215.1 M-44.9,1273.9l211.9-197.5l-52.8,197.5 M-44.9,1273.9l196.6-177
		l-37.5,177 M-44.9,1273.9l184.3-151.2l-25.2,151.2 M-44.9,1273.9l176.2-130.3l-17.1,130.3 M114.2,1273.9l343.8-494 M114.2,1273.9
		l93.4-252.9 M114.2,1273.9L229,1017.7l229-237.9 M114.2,1273.9L244.8,1021L458,779.9 M114.2,1273.9L262.9,1028L458,779.9
		 M458,779.9l-244.3,234.6 M204.4,1014.4l-5.5,6.6 M204.4,1014.4h9.3 M198.9,1021h8.7 M207.6,1021l6-6.6"/>
	
		<linearGradient id="SVGID_1_" gradientUnits="userSpaceOnUse" x1="-611.4513" y1="-187.7883" x2="380.6607" y2="155.3698" gradientTransform="matrix(1 0 0 -1 0 898)">
		<stop  offset="0" style="stop-color:#1A1E28;stop-opacity:0"/>
		<stop  offset="1" style="stop-color:#0B0E15;stop-opacity:0.91"/>
	</linearGradient>
	<path class="st2" d="M-115.5,475.2l-223.9,322 M-115.5,475.2H50.7 M-115.5,475.2l-30.8,157.6 M-115.5,475.2l30.3,46.5l135.9-46.5
		 M-115.5,475.2l19.2,70.3l147-70.3 M-115.5,475.2l7,92.9l159.2-92.9 M-115.5,475.2l-53.1,161l-170.8,161 M-115.5,475.2l-69.9,161
		l-154,161 M-115.5,475.2l-93.7,157.6l-130.2,164.4 M-115.5,475.2l-5.1,118.5L50.7,475.2 M-115.5,475.2l38.2,24.5l128.1-24.5
		 M-339.4,797.2h166.2 M-339.4,797.2l187.3-157.6 M-339.4,797.2L-173.2,679v118.2 M-339.4,797.2l154-99.8l12.2,99.8 M-339.4,797.2
		l138.1-78.4l28.1,78.4 M-339.4,797.2l125.1-51.3l41.1,51.3 M-339.4,797.2l116.7-29.5l49.5,29.5 M-173.2,797.2l223.9-322
		 M-173.2,797.2l30.3-157.6 M-173.2,797.2l52.5-161l171.3-161 M-173.2,797.2l69.1-157.6L50.7,475.2 M-173.2,797.2l88-150.3
		L50.7,475.2 M50.7,475.2l-187.3,157.6 M-146.3,632.8l-5.7,6.9 M-146.3,632.8h9.7 M-152.1,639.6h9.1 M-142.9,639.6l6.3-6.9
		 M83.6,428.5l-223.9,322 M83.6,428.5h166.2 M83.6,428.5L52.8,586.1 M83.6,428.5l30.3,46.5l135.9-46.5 M83.6,428.5l19.2,70.3
		l147-70.3 M83.6,428.5l7,92.9l159.2-92.9 M83.6,428.5l-53.1,161l-170.8,161 M83.6,428.5l-69.9,161l-154,161 M83.6,428.5L-10,586.1
		l-130.2,164.4 M83.6,428.5L78.5,547l171.3-118.5 M83.6,428.5l38.2,24.5l128.1-24.5 M-140.3,750.5H25.9 M-140.3,750.5L47.1,592.9
		 M-140.3,750.5L25.9,632.3v118.2 M-140.3,750.5l154-99.8l12.2,99.8 M-140.3,750.5l138.1-78.4l28.1,78.4 M-140.3,750.5l125.1-51.3
		l41.1,51.3 M-140.3,750.5L-23.5,721l49.5,29.5 M25.9,750.5l223.9-322 M25.9,750.5l30.3-157.6 M25.9,750.5l52.5-161l171.3-161
		 M25.9,750.5l69.1-157.6l154.8-164.4 M25.9,750.5l88-150.3l135.9-171.7 M249.8,428.5L62.5,586.1 M52.8,586.1l-5.7,6.9 M52.8,586.1
		h9.7 M47.1,592.9h9.1 M56.2,592.9l6.3-6.9 M111.6,704.6l-214.3,308.2 M111.6,704.6h159.1 M111.6,704.6L82,855.4 M111.6,704.6
		l29,44.5l130.1-44.5 M111.6,704.6l18.4,67.3l140.7-67.3 M111.6,704.6l6.7,88.9l152.4-88.9 M111.6,704.6L60.7,858.7l-163.5,154.1
		 M111.6,704.6L44.6,858.7l-147.4,154.1 M111.6,704.6L21.9,855.4l-124.7,157.4 M111.6,704.6l-4.9,113.5l164-113.5 M111.6,704.6
		l36.5,23.5l122.6-23.5 M-102.8,1012.8H56.4 M-102.8,1012.8L76.6,862 M-102.8,1012.8L56.4,899.7v113.1 M-102.8,1012.8l147.4-95.5
		l11.7,95.5 M-102.8,1012.8l132.2-75l26.9,75 M-102.8,1012.8L17,963.7l39.3,49.2 M-102.8,1012.8L9,984.6l47.4,28.2 M56.4,1012.8
		l214.3-308.2 M56.4,1012.8l29-150.8 M56.4,1012.8l50.3-154.1l164-154.1 M56.4,1012.8L122.5,862l148.2-157.4 M56.4,1012.8
		l84.2-143.9l130.1-164.4 M270.7,704.6L91.3,855.4 M82,855.4l-5.5,6.6 M82,855.4h9.3 M76.6,862h8.7 M85.3,862l6-6.6 M-264.7,1014.2
		L-479,1322.5 M-264.7,1014.2h159.1 M-264.7,1014.2l-29.5,150.8 M-264.7,1014.2l29,44.5l130.1-44.5 M-264.7,1014.2l18.4,67.3
		l140.7-67.3 M-264.7,1014.2l6.7,88.9l152.4-88.9 M-264.7,1014.2l-50.8,154.1L-479,1322.5 M-264.7,1014.2l-66.9,154.1L-479,1322.5
		 M-264.7,1014.2l-89.7,150.8L-479,1322.5 M-264.7,1014.2l-4.9,113.5l164-113.5 M-264.7,1014.2l36.5,23.5l122.6-23.5 M-479,1322.5
		h159.1 M-479,1322.5l179.3-150.8 M-479,1322.5l159.1-113.1v113.1 M-479,1322.5l147.4-95.5l11.7,95.5 M-479,1322.5l132.2-75l26.9,75
		 M-479,1322.5l119.8-49.2l39.3,49.2 M-479,1322.5l111.7-28.2l47.4,28.2 M-319.9,1322.5l214.3-308.2 M-319.9,1322.5l29-150.8
		 M-319.9,1322.5l50.3-154.1l164-154.1 M-319.9,1322.5l66.2-150.8l148.2-157.4 M-319.9,1322.5l84.2-143.9l130.1-164.4
		 M-105.6,1014.2l-179.3,150.8 M-294.2,1165.1l-5.5,6.6 M-294.2,1165.1h9.3 M-299.7,1171.6h8.7 M-290.9,1171.6l6-6.6 M298.9,779.9
		l-343.8,494 M298.9,779.9H458 M298.9,779.9l-94.5,234.6 M298.9,779.9l29,44.5L458,779.9 M298.9,779.9l18.4,67.3L458,779.9
		 M298.9,779.9l6.7,88.9L458,779.9 M298.9,779.9L183,1017.7l-227.9,256.1 M298.9,779.9l-131.9,237.9l-211.9,256.1 M298.9,779.9
		l-154.7,234.6l-189.1,259.4 M298.9,779.9l-42.5,172.5L458,779.9 M298.9,779.9l36.5,23.5L458,779.9 M-44.9,1273.9h159.1
		 M-44.9,1273.9L198.9,1021 M-44.9,1273.9l223.6-215.1l-64.5,215.1 M-44.9,1273.9l211.9-197.5l-52.8,197.5 M-44.9,1273.9l196.6-177
		l-37.5,177 M-44.9,1273.9l184.3-151.2l-25.2,151.2 M-44.9,1273.9l176.2-130.3l-17.1,130.3 M114.2,1273.9l343.8-494 M114.2,1273.9
		l93.4-252.9 M114.2,1273.9L229,1017.7l229-237.9 M114.2,1273.9L244.8,1021L458,779.9 M114.2,1273.9L262.9,1028L458,779.9
		 M458,779.9l-244.3,234.6 M204.4,1014.4l-5.5,6.6 M204.4,1014.4h9.3 M198.9,1021h8.7 M207.6,1021l6-6.6"/>
</g>
</svg>
