<svg width="375" height="817" viewBox="0 0 375 817" fill="none" xmlns="http://www.w3.org/2000/svg">
<g opacity="0.5">
<path d="M297.5 47.7023L73.6086 369.704M297.5 47.7023H463.706M297.5 47.7023L266.658 205.278M297.5 47.7023L327.771 94.2225L463.706 47.7023M297.5 47.7023L316.724 118.027L463.706 47.7023M297.5 47.7023L304.511 140.611L463.706 47.7023M297.5 47.7023L244.383 208.703L73.6086 369.704M297.5 47.7023L227.579 208.703L73.6086 369.704M297.5 47.7023L203.824 205.278L73.6086 369.704M297.5 47.7023L292.36 166.247L463.706 47.7023M297.5 47.7023L335.653 72.2488L463.706 47.7023M73.6086 369.704H239.814M73.6086 369.704L260.947 212.129M73.6086 369.704L239.814 251.546V369.704M73.6086 369.704L227.579 269.92L239.814 369.704M73.6086 369.704L211.69 291.345L239.814 369.704M73.6086 369.704L198.746 318.359L239.814 369.704M73.6086 369.704L190.325 340.205L239.814 369.704M239.814 369.704L463.706 47.7023M239.814 369.704L270.085 212.129M239.814 369.704L292.36 208.703L463.706 47.7023M239.814 369.704L308.923 212.129L463.706 47.7023M239.814 369.704L327.771 219.389L463.706 47.7023M463.706 47.7023L276.368 205.278M266.658 205.278L260.947 212.129M266.658 205.278H276.368M260.947 212.129H270.085M270.085 212.129L276.368 205.278M496.629 1L272.737 323.002M496.629 1H662.834M496.629 1L465.786 158.575M496.629 1L526.9 47.5202L662.834 1M496.629 1L515.852 71.325L662.834 1M496.629 1L503.639 93.909L662.834 1M496.629 1L443.511 162.001L272.737 323.002M496.629 1L426.707 162.001L272.737 323.002M496.629 1L402.952 158.575L272.737 323.002M496.629 1L491.488 119.545L662.834 1M496.629 1L534.781 25.5466L662.834 1M272.737 323.002H438.942M272.737 323.002L460.075 165.426M272.737 323.002L438.942 204.844V323.002M272.737 323.002L426.707 223.218L438.942 323.002M272.737 323.002L410.818 244.642L438.942 323.002M272.737 323.002L397.874 271.657L438.942 323.002M272.737 323.002L389.453 293.503L438.942 323.002M438.942 323.002L662.834 1M438.942 323.002L469.213 165.426M438.942 323.002L491.488 162.001L662.834 1M438.942 323.002L508.052 165.426L662.834 1M438.942 323.002L526.9 172.687L662.834 1M662.834 1L475.496 158.575M465.786 158.575L460.075 165.426M465.786 158.575H475.496M460.075 165.426H469.213M469.213 165.426L475.496 158.575M524.574 277.102L310.247 585.347M524.574 277.102H683.678M524.574 277.102L495.049 427.946M524.574 277.102L553.551 321.635L683.678 277.102M524.574 277.102L542.976 344.423L683.678 277.102M524.574 277.102L531.285 366.042L683.678 277.102M524.574 277.102L473.726 431.225L310.247 585.347M524.574 277.102L457.64 431.225L310.247 585.347M524.574 277.102L434.899 427.946L310.247 585.347M524.574 277.102L519.653 390.583L683.678 277.102M524.574 277.102L561.096 300.6L683.678 277.102M310.247 585.347H469.352M310.247 585.347L489.582 434.504M310.247 585.347L469.352 472.238V585.347M310.247 585.347L457.64 489.826L469.352 585.347M310.247 585.347L442.429 510.336L469.352 585.347M310.247 585.347L430.039 536.196L469.352 585.347M310.247 585.347L421.977 557.109L469.352 585.347M469.352 585.347L683.678 277.102M469.352 585.347L498.33 434.504M469.352 585.347L519.653 431.225L683.678 277.102M469.352 585.347L535.509 434.504L683.678 277.102M469.352 585.347L553.551 441.454L683.678 277.102M683.678 277.102L504.344 427.946M495.049 427.946L489.582 434.504M495.049 427.946H504.344M489.582 434.504H498.33M498.33 434.504L504.344 427.946M148.327 586.755L-66 895M148.327 586.755H307.431M148.327 586.755L118.802 737.598M148.327 586.755L177.304 631.288L307.431 586.755M148.327 586.755L166.729 654.075L307.431 586.755M148.327 586.755L155.038 675.695L307.431 586.755M148.327 586.755L97.4786 740.877L-66 895M148.327 586.755L81.3924 740.877L-66 895M148.327 586.755L58.6518 737.598L-66 895M148.327 586.755L143.406 700.235L307.431 586.755M148.327 586.755L184.849 610.253L307.431 586.755M-66 895H93.1046M-66 895L113.334 744.156M-66 895L93.1046 781.89V895M-66 895L81.3924 799.479L93.1046 895M-66 895L66.1818 819.988L93.1046 895M-66 895L53.7914 845.849L93.1046 895M-66 895L45.73 866.761L93.1046 895M93.1046 895L307.431 586.755M93.1046 895L122.082 744.156M93.1046 895L143.406 740.877L307.431 586.755M93.1046 895L159.262 744.156L307.431 586.755M93.1046 895L177.304 751.107L307.431 586.755M307.431 586.755L128.097 737.598M118.802 737.598L113.334 744.156M118.802 737.598H128.097M113.334 744.156H122.082M122.082 744.156L128.097 737.598M711.895 352.39L368.086 846.385M711.895 352.39H871M711.895 352.39L617.356 586.969M711.895 352.39L740.873 396.922L871 352.39M711.895 352.39L730.297 419.71L871 352.39M711.895 352.39L718.607 441.329L871 352.39M711.895 352.39L596.033 590.248L368.086 846.385M711.895 352.39L579.946 590.248L368.086 846.385M711.895 352.39L557.206 586.969L368.086 846.385M711.895 352.39L669.386 524.86L871 352.39M711.895 352.39L748.418 375.888L871 352.39M368.086 846.385H527.191M368.086 846.385L611.888 593.527M368.086 846.385L591.659 631.261L527.191 846.385M368.086 846.385L579.946 648.849L527.191 846.385M368.086 846.385L564.736 669.359L527.191 846.385M368.086 846.385L552.345 695.219L527.191 846.385M368.086 846.385L544.284 716.132L527.191 846.385M527.191 846.385L871 352.39M527.191 846.385L620.636 593.527M527.191 846.385L641.96 590.248L871 352.39M527.191 846.385L657.816 593.527L871 352.39M527.191 846.385L675.858 600.477L871 352.39M871 352.39L626.651 586.969M617.356 586.969L611.888 593.527M617.356 586.969H626.651M611.888 593.527H620.636M620.636 593.527L626.651 586.969" stroke="white"/>
<path d="M297.5 47.7023L73.6086 369.704M297.5 47.7023H463.706M297.5 47.7023L266.658 205.278M297.5 47.7023L327.771 94.2225L463.706 47.7023M297.5 47.7023L316.724 118.027L463.706 47.7023M297.5 47.7023L304.511 140.611L463.706 47.7023M297.5 47.7023L244.383 208.703L73.6086 369.704M297.5 47.7023L227.579 208.703L73.6086 369.704M297.5 47.7023L203.824 205.278L73.6086 369.704M297.5 47.7023L292.36 166.247L463.706 47.7023M297.5 47.7023L335.653 72.2488L463.706 47.7023M73.6086 369.704H239.814M73.6086 369.704L260.947 212.129M73.6086 369.704L239.814 251.546V369.704M73.6086 369.704L227.579 269.92L239.814 369.704M73.6086 369.704L211.69 291.345L239.814 369.704M73.6086 369.704L198.746 318.359L239.814 369.704M73.6086 369.704L190.325 340.205L239.814 369.704M239.814 369.704L463.706 47.7023M239.814 369.704L270.085 212.129M239.814 369.704L292.36 208.703L463.706 47.7023M239.814 369.704L308.923 212.129L463.706 47.7023M239.814 369.704L327.771 219.389L463.706 47.7023M463.706 47.7023L276.368 205.278M266.658 205.278L260.947 212.129M266.658 205.278H276.368M260.947 212.129H270.085M270.085 212.129L276.368 205.278M496.629 1L272.737 323.002M496.629 1H662.834M496.629 1L465.786 158.575M496.629 1L526.9 47.5202L662.834 1M496.629 1L515.852 71.325L662.834 1M496.629 1L503.639 93.909L662.834 1M496.629 1L443.511 162.001L272.737 323.002M496.629 1L426.707 162.001L272.737 323.002M496.629 1L402.952 158.575L272.737 323.002M496.629 1L491.488 119.545L662.834 1M496.629 1L534.781 25.5466L662.834 1M272.737 323.002H438.942M272.737 323.002L460.075 165.426M272.737 323.002L438.942 204.844V323.002M272.737 323.002L426.707 223.218L438.942 323.002M272.737 323.002L410.818 244.642L438.942 323.002M272.737 323.002L397.874 271.657L438.942 323.002M272.737 323.002L389.453 293.503L438.942 323.002M438.942 323.002L662.834 1M438.942 323.002L469.213 165.426M438.942 323.002L491.488 162.001L662.834 1M438.942 323.002L508.052 165.426L662.834 1M438.942 323.002L526.9 172.687L662.834 1M662.834 1L475.496 158.575M465.786 158.575L460.075 165.426M465.786 158.575H475.496M460.075 165.426H469.213M469.213 165.426L475.496 158.575M524.574 277.102L310.247 585.347M524.574 277.102H683.678M524.574 277.102L495.049 427.946M524.574 277.102L553.551 321.635L683.678 277.102M524.574 277.102L542.976 344.423L683.678 277.102M524.574 277.102L531.285 366.042L683.678 277.102M524.574 277.102L473.726 431.225L310.247 585.347M524.574 277.102L457.64 431.225L310.247 585.347M524.574 277.102L434.899 427.946L310.247 585.347M524.574 277.102L519.653 390.583L683.678 277.102M524.574 277.102L561.096 300.6L683.678 277.102M310.247 585.347H469.352M310.247 585.347L489.582 434.504M310.247 585.347L469.352 472.238V585.347M310.247 585.347L457.64 489.826L469.352 585.347M310.247 585.347L442.429 510.336L469.352 585.347M310.247 585.347L430.039 536.196L469.352 585.347M310.247 585.347L421.977 557.109L469.352 585.347M469.352 585.347L683.678 277.102M469.352 585.347L498.33 434.504M469.352 585.347L519.653 431.225L683.678 277.102M469.352 585.347L535.509 434.504L683.678 277.102M469.352 585.347L553.551 441.454L683.678 277.102M683.678 277.102L504.344 427.946M495.049 427.946L489.582 434.504M495.049 427.946H504.344M489.582 434.504H498.33M498.33 434.504L504.344 427.946M148.327 586.755L-66 895M148.327 586.755H307.431M148.327 586.755L118.802 737.598M148.327 586.755L177.304 631.288L307.431 586.755M148.327 586.755L166.729 654.075L307.431 586.755M148.327 586.755L155.038 675.695L307.431 586.755M148.327 586.755L97.4786 740.877L-66 895M148.327 586.755L81.3924 740.877L-66 895M148.327 586.755L58.6518 737.598L-66 895M148.327 586.755L143.406 700.235L307.431 586.755M148.327 586.755L184.849 610.253L307.431 586.755M-66 895H93.1046M-66 895L113.334 744.156M-66 895L93.1046 781.89V895M-66 895L81.3924 799.479L93.1046 895M-66 895L66.1818 819.988L93.1046 895M-66 895L53.7914 845.849L93.1046 895M-66 895L45.73 866.761L93.1046 895M93.1046 895L307.431 586.755M93.1046 895L122.082 744.156M93.1046 895L143.406 740.877L307.431 586.755M93.1046 895L159.262 744.156L307.431 586.755M93.1046 895L177.304 751.107L307.431 586.755M307.431 586.755L128.097 737.598M118.802 737.598L113.334 744.156M118.802 737.598H128.097M113.334 744.156H122.082M122.082 744.156L128.097 737.598M711.895 352.39L368.086 846.385M711.895 352.39H871M711.895 352.39L617.356 586.969M711.895 352.39L740.873 396.922L871 352.39M711.895 352.39L730.297 419.71L871 352.39M711.895 352.39L718.607 441.329L871 352.39M711.895 352.39L596.033 590.248L368.086 846.385M711.895 352.39L579.946 590.248L368.086 846.385M711.895 352.39L557.206 586.969L368.086 846.385M711.895 352.39L669.386 524.86L871 352.39M711.895 352.39L748.418 375.888L871 352.39M368.086 846.385H527.191M368.086 846.385L611.888 593.527M368.086 846.385L591.659 631.261L527.191 846.385M368.086 846.385L579.946 648.849L527.191 846.385M368.086 846.385L564.736 669.359L527.191 846.385M368.086 846.385L552.345 695.219L527.191 846.385M368.086 846.385L544.284 716.132L527.191 846.385M527.191 846.385L871 352.39M527.191 846.385L620.636 593.527M527.191 846.385L641.96 590.248L871 352.39M527.191 846.385L657.816 593.527L871 352.39M527.191 846.385L675.858 600.477L871 352.39M871 352.39L626.651 586.969M617.356 586.969L611.888 593.527M617.356 586.969H626.651M611.888 593.527H620.636M620.636 593.527L626.651 586.969" stroke="url(#paint0_linear)"/>
</g>
<defs>
<linearGradient id="paint0_linear" x1="569" y1="-27" x2="181.81" y2="135.787" gradientUnits="userSpaceOnUse">
<stop stop-color="#1A1E28" stop-opacity="0"/>
<stop offset="1" stop-color="#0B0E15" stop-opacity="0.91"/>
</linearGradient>
</defs>
</svg>
