<svg width="13" height="7" viewBox="0 0 13 7" fill="none" xmlns="http://www.w3.org/2000/svg">
<path opacity="0.4" d="M6.4375 6.50293C6.58105 6.50293 6.71094 6.44141 6.81348 6.33203L11.9951 0.876953C12.084 0.788086 12.1387 0.678711 12.1387 0.541992C12.1387 0.275391 11.9336 0.0703125 11.667 0.0703125C11.5439 0.0703125 11.4141 0.118164 11.3252 0.207031L6.44434 5.34766L1.5498 0.207031C1.46777 0.118164 1.34473 0.0703125 1.21484 0.0703125C0.948242 0.0703125 0.743164 0.275391 0.743164 0.541992C0.743164 0.678711 0.797852 0.788086 0.886719 0.883789L6.06836 6.33887C6.17773 6.44141 6.29395 6.50293 6.4375 6.50293Z" fill="black"/>
</svg>
