<?xml version="1.0" encoding="utf-8"?>
<!-- Generator: Adobe Illustrator 23.0.2, SVG Export Plug-In . SVG Version: 6.00 Build 0)  -->
<svg version="1.1" id="Слой_1" xmlns="http://www.w3.org/2000/svg" xmlns:xlink="http://www.w3.org/1999/xlink" x="0px" y="0px"
	 viewBox="0 0 236.4 60.2" style="enable-background:new 0 0 236.4 60.2;" xml:space="preserve">
<style type="text/css">
	.st0{fill:#FFFFFF;}
	.st1{fill:#A18C74;}
</style>
<path class="st0" d="M0,0v29.7h5.5V4.9h13.1c2.9,0,5,1.6,5,4.6c0,2.7-1.7,4.5-5.1,4.5H9.9l-2.1,4.9h10.7c6.6,0,10.7-3.6,10.7-9.3
	c0-2.9-1-5.2-2.9-6.9C24.3,0.9,21.7,0,18.4,0H0z"/>
<path class="st0" d="M43.4,0v29.7H49V4.8h13.2c3.3,0,5.4,1.8,5.4,4.3c0,2.7-2.1,4.3-5.5,4.3h-8.6l-2,4.9h7.4l8.8,11.4h6.9l-9.4-12
	c5.1-0.9,8-4.1,8-8.7c0-5.6-4.5-9-11.6-9H43.4z"/>
<path class="st0" d="M82.9,0l13.5,17.9v11.8h5.5V17.9L115.5,0h-6.4l-9.8,12.9L89.5,0H82.9z"/>
<path class="st0" d="M122.3,0v5.1h30.4V0H122.3z M140.3,29.7v-23l-5.5,3.3v19.7H140.3z"/>
<path class="st0" d="M164.8,0v29.7h27.3v-4.8h-21.7v-20h20.5V0H164.8z M174,12.3l-1.9,4.7h18.3v-4.7H174z"/>
<path class="st0" d="M228.4,0l-14.6,14L229,29.7h7.3l-15.5-16L235.2,0H228.4z M206.3,0v29.7h5.5V0H206.3z"/>
<path class="st1" d="M13.9,60.2h1.8v-6.7H8.2v1.8h5.4c-0.1,0.6-0.3,1.1-0.6,1.6s-0.9,0.9-1.7,1.2c-0.4,0.2-0.8,0.3-1.3,0.4
	c-0.5,0.1-1,0.1-1.6,0.1c-1.6,0-2.9-0.4-3.8-1.2c-0.9-0.8-1.3-2-1.3-3.6v-0.2c0-1.7,0.5-2.9,1.4-3.7c0.9-0.8,2.2-1.2,3.9-1.2
	c1.3,0,2.4,0.2,3.2,0.7c0.8,0.5,1.3,1.2,1.5,2.1h2.5c-0.3-1.7-1.1-2.9-2.3-3.7c-1.3-0.8-2.9-1.2-4.8-1.2c-1.5,0-2.8,0.3-3.9,0.8
	c-1.1,0.5-2,1.3-2.6,2.3c-0.3,0.5-0.5,1.1-0.7,1.7c-0.2,0.6-0.2,1.3-0.2,2v0.3c0,1.5,0.3,2.8,0.9,3.7c0.6,1,1.4,1.7,2.4,2.2
	c0.5,0.2,1.1,0.4,1.7,0.5c0.6,0.1,1.3,0.2,2,0.2c1.2,0,2.2-0.2,3-0.5c0.8-0.3,1.4-0.8,1.9-1.4c0.2-0.3,0.4-0.6,0.6-0.9
	c0.1-0.3,0.3-0.7,0.3-1.1L13.9,60.2z M30.2,49c1.3,0,2.3,0.2,2.9,0.5c0.6,0.3,0.9,0.9,0.9,1.8v0.1c0,0.6-0.2,1.1-0.5,1.4
	c-0.3,0.3-0.8,0.6-1.4,0.7c-0.3,0.1-0.6,0.1-1,0.1c-0.3,0-0.7,0-1.1,0h-4.3V49H30.2z M30.2,55.5c0.9,0,1.6,0.1,2.1,0.3
	c0.5,0.2,0.9,0.5,1.1,0.9c0.1,0.2,0.2,0.5,0.2,0.8c0.1,0.3,0.1,0.6,0.1,1v1.1c0,0.2,0,0.3,0,0.5c0,0.2,0.1,0.3,0.2,0.3h2.3
	c-0.1-0.1-0.2-0.2-0.3-0.3c0-0.1-0.1-0.3-0.1-0.5v-1.1c0-1.2-0.2-2-0.6-2.6c-0.4-0.6-1.1-1-2.1-1.2c1-0.2,1.7-0.6,2.2-1.1
	c0.5-0.6,0.7-1.3,0.7-2.3c0-1.4-0.5-2.4-1.4-3c-1-0.7-2.5-1-4.7-1h-6.6v13.2h2.2v-4.8H30.2z M50.7,60.6c1.4,0,2.7-0.2,3.8-0.7
	c1.1-0.5,2-1.2,2.6-2.2c0.3-0.5,0.6-1,0.7-1.7c0.2-0.6,0.2-1.3,0.2-2.1v-0.3c0-1.5-0.3-2.7-1-3.7c-0.6-1-1.5-1.8-2.6-2.3
	c-0.6-0.3-1.2-0.5-1.8-0.6c-0.6-0.1-1.3-0.2-2-0.2c-1.4,0-2.7,0.3-3.8,0.8s-2,1.3-2.6,2.3c-0.3,0.5-0.5,1.1-0.7,1.7
	c-0.2,0.6-0.2,1.3-0.2,2v0.2c0,1.5,0.3,2.8,0.9,3.8c0.6,1,1.5,1.7,2.6,2.2c0.6,0.2,1.2,0.4,1.8,0.5C49.3,60.5,50,60.6,50.7,60.6z
	 M50.7,58.6c-1.5,0-2.8-0.4-3.7-1.2c-0.9-0.8-1.4-2-1.4-3.6v-0.2c0-1.7,0.5-2.9,1.4-3.7c0.9-0.8,2.2-1.2,3.7-1.2
	c1.6,0,2.8,0.4,3.7,1.2c0.9,0.8,1.4,2,1.4,3.7v0.2c0,1.1-0.2,2-0.6,2.7c-0.4,0.7-1,1.2-1.8,1.5c-0.4,0.2-0.8,0.3-1.3,0.4
	C51.7,58.5,51.2,58.6,50.7,58.6z M72.1,60.6c2.1,0,3.7-0.6,4.9-1.7c1.1-1.1,1.7-3,1.7-5.5v-6.4h-2.3v6.3c0,1.8-0.3,3.2-1,3.9
	c-0.7,0.8-1.8,1.2-3.2,1.2c-1.5,0-2.6-0.4-3.3-1.2c-0.7-0.8-1-2.1-1-3.9v-6.3h-2.3v6.4c0,2.5,0.5,4.3,1.6,5.4
	C68.2,60,69.8,60.6,72.1,60.6z M92.9,48.9c1.4,0,2.4,0.2,3.1,0.6c0.7,0.4,1,1.1,1,2.1c0,0.9-0.3,1.6-1,2c-0.6,0.4-1.6,0.6-3,0.6
	h-4.2v-5.2H92.9z M93.1,56c2,0,3.6-0.4,4.6-1.1c1-0.8,1.5-1.9,1.5-3.3c0-1.5-0.5-2.6-1.5-3.4c-1-0.8-2.6-1.1-4.8-1.1h-6.3v13.2h2.2
	V56H93.1z M124.2,55.9h0.3l5.4-5.7v10.1h2.1V47.1h-2l-5.6,6.1l-5.5-6.1h-2.1v13.2h2.1V50.2L124.2,55.9z M152.3,58.3h-10v-3.7h8.2
	v-1.9h-8.2v-3.8h9.6v-1.9h-11.7v13.2h12.1V58.3z M166.9,55.9h0.3l5.4-5.7v10.1h2.1V47.1h-2l-5.6,6.1l-5.5-6.1h-2.1v13.2h2.1V50.2
	L166.9,55.9z M189.5,60.2c2.1,0,3.7-0.3,4.7-0.8c1.1-0.6,1.6-1.5,1.6-2.9v0c0-0.9-0.3-1.6-0.8-2.1c-0.5-0.5-1.3-0.8-2.3-0.9
	c0.9-0.2,1.6-0.5,2.1-1c0.5-0.5,0.7-1.1,0.7-2v-0.1c0-1.2-0.5-2.1-1.5-2.6c-1-0.5-2.5-0.8-4.6-0.8h-6.6v13.2H189.5z M189.6,52.6H185
	v-3.8h4.6c1.3,0,2.3,0.1,2.9,0.4c0.6,0.2,0.9,0.7,0.9,1.5v0c0,0.5-0.2,0.9-0.5,1.2c-0.3,0.3-0.7,0.5-1.3,0.6c-0.3,0-0.6,0.1-0.9,0.1
	C190.4,52.6,190,52.6,189.6,52.6z M189.4,54.4c1,0,1.8,0,2.4,0.1c0.6,0.1,1.1,0.3,1.4,0.6c0.1,0.1,0.3,0.3,0.3,0.5
	c0.1,0.2,0.1,0.5,0.1,0.7v0c0,0.5-0.1,0.9-0.4,1.2c-0.3,0.3-0.7,0.5-1.4,0.6c-0.3,0-0.7,0.1-1.1,0.1c-0.4,0-0.9,0-1.4,0H185v-4
	H189.4z M215.1,58.3h-10v-3.7h8.2v-1.9h-8.2v-3.8h9.6v-1.9H203v13.2h12.1V58.3z M228.9,49c1.3,0,2.3,0.2,2.9,0.5
	c0.6,0.3,0.9,0.9,0.9,1.8v0.1c0,0.6-0.2,1.1-0.5,1.4c-0.3,0.3-0.8,0.6-1.4,0.7c-0.3,0.1-0.6,0.1-1,0.1c-0.3,0-0.7,0-1.1,0h-4.3V49
	H228.9z M228.9,55.5c0.9,0,1.6,0.1,2.1,0.3c0.5,0.2,0.9,0.5,1.1,0.9c0.1,0.2,0.2,0.5,0.2,0.8c0.1,0.3,0.1,0.6,0.1,1v1.1
	c0,0.2,0,0.3,0,0.5c0,0.2,0.1,0.3,0.2,0.3h2.3c-0.1-0.1-0.2-0.2-0.3-0.3c0-0.1-0.1-0.3-0.1-0.5v-1.1c0-1.2-0.2-2-0.6-2.6
	c-0.4-0.6-1.1-1-2.1-1.2c1-0.2,1.7-0.6,2.2-1.1c0.5-0.6,0.7-1.3,0.7-2.3c0-1.4-0.5-2.4-1.4-3c-1-0.7-2.5-1-4.7-1h-6.6v13.2h2.2v-4.8
	H228.9z"/>
</svg>
