<svg width="18" height="18" viewBox="0 0 18 18" fill="none" xmlns="http://www.w3.org/2000/svg">
<path d="M8.89756 17.8977C13.7677 17.8977 17.7951 13.8703 17.7951 9.0001C17.7951 4.12108 13.7677 0.102539 8.88869 0.102539C4.01854 0.102539 0 4.12108 0 9.0001C0 13.8703 4.02741 17.8977 8.89756 17.8977ZM3.44193 3.24285C4.4266 2.31141 5.65079 1.61947 6.99918 1.28238C6.30724 1.91221 5.71289 2.87915 5.27821 4.10334C4.55967 3.89043 3.9387 3.59769 3.44193 3.24285ZM10.7959 1.28238C12.1532 1.62834 13.3685 2.31141 14.3532 3.24285C13.8475 3.59769 13.2355 3.89043 12.5169 4.10334C12.0822 2.87915 11.4879 1.91221 10.7959 1.28238ZM6.19192 4.33398C6.74192 2.76382 7.54918 1.6727 8.43627 1.37996V4.5735C7.62014 4.54688 6.87498 4.46705 6.19192 4.33398ZM9.35885 1.37996C10.2459 1.6727 11.0532 2.76382 11.6032 4.33398C10.9201 4.46705 10.175 4.54688 9.35885 4.5735V1.37996ZM0.966933 8.53881C1.06451 6.78236 1.74758 5.17672 2.82096 3.89931C3.3887 4.33398 4.13386 4.68882 5.01209 4.95495C4.72822 6.01059 4.5508 7.21704 4.51531 8.53881H0.966933ZM13.2798 8.53881C13.2443 7.21704 13.0669 6.01059 12.783 4.95495C13.6613 4.68882 14.4064 4.33398 14.9742 3.90818C16.0475 5.17672 16.7306 6.78236 16.8282 8.53881H13.2798ZM9.35885 8.53881V5.4872C10.2459 5.46059 11.0976 5.36301 11.8693 5.19446C12.1355 6.19688 12.2951 7.33236 12.3306 8.53881H9.35885ZM5.4645 8.53881C5.49999 7.33236 5.66854 6.19688 5.92579 5.19446C6.70644 5.36301 7.54918 5.46059 8.43627 5.4872V8.53881H5.4645ZM0.966933 9.46139H4.51531C4.5508 10.792 4.72822 12.0162 5.01209 13.0807C4.1516 13.3469 3.40644 13.7017 2.84757 14.1186C1.75645 12.8412 1.06451 11.2267 0.966933 9.46139ZM5.4645 9.46139H8.43627V12.5574C7.55805 12.5751 6.71531 12.6815 5.94354 12.8412C5.66854 11.8299 5.49112 10.6678 5.4645 9.46139ZM9.35885 12.5574V9.46139H12.3395C12.304 10.6678 12.1266 11.8299 11.8516 12.8412C11.0798 12.6815 10.2459 12.5751 9.35885 12.5574ZM12.783 13.0807C13.0669 12.0162 13.2443 10.792 13.2798 9.46139H16.8282C16.7306 11.2267 16.0387 12.8412 14.9475 14.1186C14.3887 13.7017 13.6435 13.3469 12.783 13.0807ZM9.35885 13.4711C10.1661 13.4977 10.9113 13.5775 11.5855 13.7106C11.0355 15.2452 10.2371 16.3452 9.35885 16.638V13.4711ZM6.20966 13.7106C6.89273 13.5775 7.62902 13.4977 8.43627 13.4711V16.638C7.55805 16.3452 6.75966 15.2452 6.20966 13.7106ZM12.5169 13.9412C13.2177 14.1541 13.8298 14.438 14.3266 14.7751C13.3508 15.6888 12.1532 16.3719 10.8314 16.709C11.5056 16.0791 12.0822 15.1299 12.5169 13.9412ZM3.46854 14.7751C3.96531 14.438 4.57741 14.1541 5.28709 13.9412C5.71289 15.1299 6.2895 16.0791 6.96369 16.709C5.64192 16.3719 4.44434 15.6888 3.46854 14.7751Z" fill="black"/>
</svg>
